<svg viewBox="0 0 323.1 72" xmlns="http://www.w3.org/2000/svg">
<defs><linearGradient id="liq" x1="0" y1="0" x2="0" y2="1">
  <stop offset="0" stop-color="#1FC9D9"/><stop offset="1" stop-color="#0FA3BD"/>
</linearGradient><linearGradient id="bg" x1="0" y1="0" x2="1" y2="1"><stop offset="0" stop-color="#143a4b"/><stop offset="1" stop-color="#0A2230"/></linearGradient></defs>
<g transform="translate(0 0)"><g transform="scale(1.1250)"><rect x="2" y="2" width="60" height="60" rx="15" fill="url(#bg)"/><g transform="translate(32 33.2) scale(0.9) translate(-32 -32.3)">
  <path d="M21.4 41 Q27 38.6 32 39.9 Q37 41.2 42.6 41 L45.2 48.6 Q46.8 51 43.6 51 H20.4 Q17.2 51 18.8 48.6 Z" fill="url(#liq)"/>
  <g fill="none" stroke="#FFFFFF" stroke-width="2.7" stroke-linecap="round" stroke-linejoin="round">
    <path d="M27.5 12.5 H36.5"/><path d="M28.6 12.5 L29.6 27"/><path d="M35.4 12.5 L34.4 27"/><path d="M29.6 27 L16 49 Q14.8 52 18 52 H46 Q49.2 52 48 49 L34.4 27"/>
  </g>
  <path d="M40.5 13.2 Q41.4 17.1 45.3 18 Q41.4 18.9 40.5 22.8 Q39.6 18.9 35.7 18 Q39.6 17.1 40.5 13.2 Z" fill="#FFFFFF"/>
  <path d="M44.6 21.3 Q45.0 23.0 46.7 23.4 Q45.0 23.8 44.6 25.5 Q44.2 23.8 42.5 23.4 Q44.2 23.0 44.6 21.3 Z" fill="#FFFFFF"/>
</g></g></g>
<g transform="translate(94.0 15.0)"><path d="M1.38 15.02 Q1.38 10.66 3.27 7.24 Q5.16 3.82 8.54 1.91 Q11.92 0.00 16.19 0.00 Q21.44 0.00 25.17 2.77 Q28.91 5.54 30.17 10.32 L22.28 10.32 Q21.40 8.48 19.78 7.51 Q18.17 6.54 16.11 6.54 Q12.80 6.54 10.74 8.85 Q8.69 11.16 8.69 15.02 Q8.69 18.88 10.74 21.19 Q12.80 23.50 16.11 23.50 Q18.17 23.50 19.78 22.53 Q21.40 21.57 22.28 19.72 L30.17 19.72 Q28.91 24.51 25.17 27.25 Q21.44 30.00 16.19 30.00 Q11.92 30.00 8.54 28.09 Q5.16 26.18 3.27 22.79 Q1.38 19.39 1.38 15.02 Z M41.75 24.25 L51.15 24.25 L51.15 29.79 L34.57 29.79 L34.57 0.33 L41.75 0.33 L41.75 24.25 Z M61.76 6.08 L61.76 12.04 L71.37 12.04 L71.37 17.58 L61.76 17.58 L61.76 24.04 L72.63 24.04 L72.63 29.79 L54.59 29.79 L54.59 0.33 L72.63 0.33 L72.63 6.08 L61.76 6.08 Z M95.62 24.58 L84.63 24.58 L82.87 29.79 L75.35 29.79 L86.01 0.33 L94.32 0.33 L104.98 29.79 L97.38 29.79 L95.62 24.58 Z M93.78 19.05 L90.12 8.27 L86.52 19.05 L93.78 19.05 Z M134.56 29.79 L127.39 29.79 L115.38 11.62 L115.38 29.79 L108.21 29.79 L108.21 0.33 L115.38 0.33 L127.39 18.59 L127.39 0.33 L134.56 0.33 L134.56 29.79 Z M155.83 24.25 L165.23 24.25 L165.23 29.79 L148.66 29.79 L148.66 0.33 L155.83 0.33 L155.83 24.25 Z M187.01 24.58 L176.02 24.58 L174.25 29.79 L166.74 29.79 L177.40 0.33 L185.70 0.33 L196.36 29.79 L188.77 29.79 L187.01 24.58 Z M185.16 19.05 L181.51 8.27 L177.90 19.05 L185.16 19.05 Z M217.43 14.69 Q219.98 15.23 221.54 17.22 Q223.09 19.22 223.09 21.78 Q223.09 25.47 220.51 27.63 Q217.93 29.79 213.32 29.79 L199.60 29.79 L199.60 0.33 L212.85 0.33 Q217.34 0.33 219.88 2.39 Q222.42 4.44 222.42 7.97 Q222.42 10.57 221.05 12.30 Q219.69 14.02 217.43 14.69 Z M206.77 12.25 L211.47 12.25 Q213.23 12.25 214.18 11.48 Q215.12 10.70 215.12 9.19 Q215.12 7.68 214.18 6.88 Q213.23 6.08 211.47 6.08 L206.77 6.08 L206.77 12.25 Z M212.06 24.00 Q213.86 24.00 214.84 23.18 Q215.83 22.36 215.83 20.81 Q215.83 19.26 214.81 18.38 Q213.78 17.50 211.97 17.50 L206.77 17.50 L206.77 24.00 L212.06 24.00 Z" fill="#0E2B3A"/></g>
<g transform="translate(94.0 53.0)"><path d="M4.68 0.14 Q6.40 0.14 7.69 0.80 Q8.99 1.46 9.69 2.69 Q10.39 3.92 10.39 5.56 Q10.39 7.20 9.69 8.41 Q8.99 9.62 7.69 10.27 Q6.40 10.91 4.68 10.91 L1.16 10.91 L1.16 0.14 L4.68 0.14 Z M4.68 9.47 Q6.57 9.47 7.58 8.45 Q8.58 7.42 8.58 5.56 Q8.58 3.69 7.58 2.64 Q6.57 1.58 4.68 1.58 L2.93 1.58 L2.93 9.47 L4.68 9.47 Z M18.59 1.57 L18.59 4.73 L22.31 4.73 L22.31 6.17 L18.59 6.17 L18.59 9.47 L22.77 9.47 L22.77 10.91 L16.82 10.91 L16.82 0.13 L22.77 0.13 L22.77 1.57 L18.59 1.57 Z M36.16 0.14 L36.16 1.58 L33.30 1.58 L33.30 10.91 L31.53 10.91 L31.53 1.58 L28.65 1.58 L28.65 0.14 L36.16 0.14 Z M49.08 8.71 L44.57 8.71 L43.80 10.91 L41.96 10.91 L45.81 0.13 L47.86 0.13 L51.72 10.91 L49.86 10.91 L49.08 8.71 Z M48.59 7.27 L46.84 2.26 L45.07 7.27 L48.59 7.27 Z M59.91 0.14 L59.91 10.91 L58.15 10.91 L58.15 0.14 L59.91 0.14 Z M68.11 9.48 L71.75 9.48 L71.75 10.91 L66.34 10.91 L66.34 0.14 L68.11 0.14 L68.11 9.48 Z M79.95 0.14 L79.95 10.91 L78.18 10.91 L78.18 0.14 L79.95 0.14 Z M95.22 10.91 L93.46 10.91 L88.15 2.87 L88.15 10.91 L86.38 10.91 L86.38 0.13 L88.15 0.13 L93.46 8.15 L93.46 0.13 L95.22 0.13 L95.22 10.91 Z M109.45 3.24 Q109.03 2.43 108.28 2.02 Q107.54 1.61 106.56 1.61 Q105.49 1.61 104.66 2.09 Q103.82 2.57 103.35 3.46 Q102.88 4.34 102.88 5.50 Q102.88 6.66 103.35 7.55 Q103.82 8.44 104.66 8.93 Q105.49 9.40 106.56 9.40 Q108.01 9.40 108.90 8.60 Q109.80 7.79 110.00 6.42 L105.96 6.42 L105.96 5.01 L111.89 5.01 L111.89 6.38 Q111.72 7.64 111.00 8.69 Q110.28 9.75 109.13 10.37 Q107.97 11.00 106.56 11.00 Q105.05 11.00 103.79 10.30 Q102.54 9.59 101.80 8.34 Q101.06 7.08 101.06 5.50 Q101.06 3.92 101.80 2.67 Q102.54 1.41 103.80 0.71 Q105.06 0.00 106.56 0.00 Q108.28 0.00 109.62 0.84 Q110.96 1.69 111.57 3.24 L109.45 3.24 Z" fill="#0FA3BD"/></g>
</svg>