<svg viewBox="0 0 64 64" xmlns="http://www.w3.org/2000/svg">
<defs><linearGradient id="bg" x1="0" y1="0" x2="1" y2="1"><stop offset="0" stop-color="#143a4b"/><stop offset="1" stop-color="#0A2230"/></linearGradient><linearGradient id="liq" x1="0" y1="0" x2="0" y2="1">
  <stop offset="0" stop-color="#1FC9D9"/><stop offset="1" stop-color="#0FA3BD"/>
</linearGradient></defs>
<rect x="2" y="2" width="60" height="60" rx="15" fill="url(#bg)"/>
<g transform="translate(32 33.2) scale(0.9) translate(-32 -32.3)">
  <path d="M21.4 41 Q27 38.6 32 39.9 Q37 41.2 42.6 41 L45.2 48.6 Q46.8 51 43.6 51 H20.4 Q17.2 51 18.8 48.6 Z" fill="url(#liq)"/>
  <g fill="none" stroke="#FFFFFF" stroke-width="2.7" stroke-linecap="round" stroke-linejoin="round">
    <path d="M27.5 12.5 H36.5"/><path d="M28.6 12.5 L29.6 27"/><path d="M35.4 12.5 L34.4 27"/><path d="M29.6 27 L16 49 Q14.8 52 18 52 H46 Q49.2 52 48 49 L34.4 27"/>
  </g>
  <path d="M40.5 13.2 Q41.4 17.1 45.3 18 Q41.4 18.9 40.5 22.8 Q39.6 18.9 35.7 18 Q39.6 17.1 40.5 13.2 Z" fill="#FFFFFF"/>
  <path d="M44.6 21.3 Q45.0 23.0 46.7 23.4 Q45.0 23.8 44.6 25.5 Q44.2 23.8 42.5 23.4 Q44.2 23.0 44.6 21.3 Z" fill="#FFFFFF"/>
</g>
</svg>